<svg width="34" height="34" viewBox="0 0 34 34" fill="none" xmlns="http://www.w3.org/2000/svg">
<path fill-rule="evenodd" clip-rule="evenodd" d="M4.73539 6.6195L2.06969 5.42678L2.92086 13.6708L9.63482 8.81167L7.24596 7.74281C10.4493 4.2492 15.363 2.49024 20.3365 3.54078C27.8259 5.12275 32.6149 12.4766 31.0329 19.966C29.4509 27.4554 22.0971 32.2443 14.6077 30.6623C9.50093 29.5836 5.64973 25.8214 4.21771 21.1625C4.06183 20.6553 3.65793 20.2547 3.13884 20.145C2.19451 19.9456 1.34918 20.7578 1.61803 21.6848C3.26016 27.3468 7.8911 31.9419 14.0621 33.2453C22.9781 35.1286 31.7326 29.4275 33.6159 20.5116C35.4992 11.5956 29.7981 2.84108 20.8821 0.957776C14.7111 -0.345712 8.61746 1.98405 4.82582 6.49831C4.79267 6.53778 4.76255 6.57824 4.73539 6.6195Z" fill="#474747"/>
<path d="M15.6351 23.41H7.0895C7.0895 22.6557 7.18579 21.963 7.37837 21.3318C7.57095 20.7006 7.82237 20.1817 8.13263 19.7751C8.44824 19.3632 8.7906 18.9888 9.15971 18.6517C9.53416 18.3094 9.90594 18.0178 10.275 17.7771C10.6495 17.5311 10.9919 17.301 11.3021 17.0871C11.6177 16.8677 11.8718 16.635 12.0644 16.389C12.257 16.1375 12.3533 15.8754 12.3533 15.6026C12.3533 14.8911 11.9414 14.5354 11.1176 14.5354C10.802 14.5354 10.5211 14.6263 10.275 14.8082C10.029 14.9901 9.86047 15.1666 9.76953 15.3378L9.64115 15.6026L7.00926 14.3749C7.04136 14.3 7.08683 14.1984 7.14567 14.07C7.20986 13.9416 7.36232 13.7196 7.60304 13.404C7.84376 13.0831 8.11658 12.7995 8.42149 12.5535C8.73176 12.3074 9.15703 12.0827 9.69732 11.8795C10.2376 11.6762 10.8207 11.5745 11.4466 11.5745C12.6609 11.5745 13.6612 11.9436 14.4476 12.6819C15.2393 13.4147 15.6351 14.3054 15.6351 15.3539C15.6351 15.9102 15.5254 16.413 15.3061 16.8624C15.0868 17.3064 14.8006 17.6835 14.4476 17.9938C14.0998 18.2987 13.7414 18.5742 13.3723 18.8203C13.0086 19.0663 12.6314 19.3311 12.2409 19.6146C11.8558 19.8981 11.5642 20.1763 11.3663 20.4491H15.6351V23.41ZM25.2559 18.8925H26.4916V21.5163H25.2559V23.41H22.1346V21.5163H16.9591V18.6437L21.8056 11.9035H25.2559V18.8925ZM22.1346 18.8925V15.5224L19.7514 18.8925H22.1346Z" fill="#474747"/>
</svg>
