<svg width="41" height="43" viewBox="0 0 41 43" fill="none" xmlns="http://www.w3.org/2000/svg">
<path fill-rule="evenodd" clip-rule="evenodd" d="M37.9013 3.11569C38.3786 3.29777 38.618 3.83236 38.4359 4.30973L37.7628 6.07457C37.5807 6.55194 37.0461 6.79131 36.5687 6.60923L35.8297 6.32735C35.3524 6.14527 34.8178 6.38465 34.6357 6.86202L34.1759 8.06731C33.9939 8.54468 34.2332 9.07927 34.7106 9.26135L34.9286 9.34451C35.406 9.5266 35.6454 10.0612 35.4633 10.5386L32.5281 18.2338C32.346 18.7112 31.8114 18.9505 31.334 18.7685L25.2836 16.4606C24.8062 16.2785 24.5668 15.7439 24.7489 15.2666L27.6841 7.57133C27.8662 7.09396 28.4008 6.85458 28.8781 7.03667L29.217 7.16591C29.6944 7.348 30.229 7.10862 30.411 6.63125L30.8708 5.42596C31.0529 4.94859 30.8135 4.414 30.3361 4.23192L29.8711 4.05454C29.3937 3.87245 29.1543 3.33786 29.3364 2.86049L30.0096 1.09566C30.1917 0.618286 30.7263 0.378909 31.2036 0.560993L37.9013 3.11569ZM37.078 13.3442L35.4349 17.452C35.4023 17.5336 35.3939 17.6232 35.409 17.7098C35.8029 19.9816 35.3235 21.9318 34.8417 23.0717C34.6996 23.4079 34.9387 23.8298 35.2995 23.8848C36.789 24.1117 37.9308 24.9049 38.6 25.5695C38.8436 25.8114 39.2748 25.78 39.4215 25.4697C40.3444 23.5176 41.5247 19.9708 40.7043 17.3456C39.9122 14.811 38.4985 13.5649 37.6244 13.1137C37.4115 13.0039 37.167 13.1218 37.078 13.3442ZM4.87929 20.1209H6.03566V25.2875L6.03474 25.2895L5.8507 25.6877C5.69205 26.0312 5.46517 26.523 5.19221 27.1159C4.64631 28.3017 3.91592 29.8926 3.1782 31.5127C2.44069 33.1323 1.69498 34.783 1.11879 36.0876C0.830867 36.7395 0.583985 37.3079 0.401233 37.7439C0.230191 38.152 0.0880864 38.5065 0.0432422 38.6858C-0.0700359 39.1389 0.0573545 39.5879 0.216474 39.9326C0.38254 40.2924 0.628501 40.638 0.891594 40.934C1.15577 41.2312 1.45866 41.5025 1.7586 41.7054C2.02754 41.8873 2.40589 42.0919 2.79782 42.0919H2.80203H2.80653H2.81132H2.8164H2.82176H2.82741H2.83334H2.83956H2.84606H2.85283H2.85989H2.86723H2.87484H2.88273H2.8909H2.89933H2.90804H2.91702H2.92628H2.9358H2.94559H2.95564H2.96596H2.97654H2.98739H2.9985H3.00987H3.0215H3.03339H3.04554H3.05794H3.0706H3.08351H3.09667H3.11008H3.12375H3.13766H3.15182H3.16623H3.18089H3.19578H3.21093H3.22631H3.24193H3.2578H3.2739H3.29024H3.30682H3.32363H3.34068H3.35795H3.37546H3.3932H3.41117H3.42937H3.44779H3.46644H3.48532H3.50442H3.52374H3.54328H3.56304H3.58302H3.60322H3.62363H3.64426H3.6651H3.68616H3.70743H3.7289H3.75059H3.77249H3.79459H3.8169H3.83941H3.86213H3.88505H3.90817H3.93149H3.95501H3.97872H4.00264H4.02675H4.05105H4.07554H4.10023H4.12511H4.15018H4.17543H4.20088H4.22651H4.25232H4.27832H4.3045H4.33086H4.3574H4.38412H4.41102H4.4381H4.46535H4.49277H4.52037H4.54814H4.57608H4.60419H4.63247H4.66092H4.68953H4.71831H4.74725H4.77635H4.80562H4.83504H4.86463H4.89437H4.92427H4.95432H4.98453H5.01489H5.04541H5.07608H5.10689H5.13786H5.16897H5.20022H5.23163H5.26317H5.29486H5.3267H5.35867H5.39078H5.42303H5.45541H5.48794H5.52059H5.55338H5.5863H5.61936H5.65254H5.68585H5.71929H5.75286H5.78655H5.82036H5.8543H5.88836H5.92254H5.95684H5.99126H6.02579H6.06044H6.09521H6.13009H6.16508H6.20018H6.2354H6.27072H6.30615H6.34168H6.37733H6.41307H6.44892H6.48487H6.52092H6.55707H6.59332H6.62967H6.66611H6.70265H6.73928H6.776H6.81282H6.84972H6.88672H6.9238H6.96097H6.99822H7.03556H7.07298H7.11049H7.14807H7.18573H7.22348H7.2613H7.29919H7.33716H7.37521H7.41333H7.45152H7.48978H7.52811H7.5665H7.60497H7.6435H7.68209H7.72075H7.75947H7.79825H7.83709H7.87598H7.91494H7.95395H7.99302H8.03214H8.07132H8.11054H8.14982H8.18915H8.22852H8.26794H8.30741H8.34692H8.38647H8.42607H8.46571H8.50539H8.5451H8.58486H8.62465H8.66448H8.70434H8.74423H8.78416H8.82411H8.8641H8.90411H8.94415H8.98422H9.02431H9.06442H9.10456H9.14472H9.1849H9.2251H9.26531H9.30554H9.34579H9.38605H9.42633H9.46662H9.50691H9.54722H9.58754H9.62786H9.66819H9.70852H9.74886H9.7892H9.82954H9.86988H9.91022H9.95056H9.9909H10.0312H10.0716H10.1119H10.1522H10.1925H10.2328H10.2731H10.3133H10.3536H10.3938H10.434H10.4742H10.5144H10.5546H10.5947H10.6349H10.675H10.715H10.7551H10.7951H10.8351H10.8751H10.915H10.9549H10.9948H11.0346H11.0745H11.1142H11.154H11.1936H11.2333H11.2729H11.3125H11.352H11.3915H11.4309H11.4703H11.5097H11.549H11.5882H11.6274H11.6666H11.7057H11.7447H11.7837H11.8226H11.8615H11.9003H11.939H11.9777H12.0163H12.0549H12.0934H12.1318H12.1701H12.2084H12.2466H12.2848H12.3229H12.3609H12.3988H12.4366H12.4744H12.5121H12.5497H12.5873H12.6247H12.6621H12.6994H12.7366H12.7737H12.8107H12.8477H12.8845H12.9213H12.958H12.9945H13.031H13.0674H13.1037H13.1399H13.176H13.212H13.2479H13.2836H13.3193H13.3549H13.3904H13.4257H13.461H13.4961H13.5312H13.5661H13.6009H13.6356H13.6702H13.7047H13.739H13.7732H13.8074H13.8413H13.8752H13.9089H13.9426H13.9761H14.0094H14.0427H14.0758H14.1087H14.1416H14.1743H14.2069H14.2393H14.2716H14.3038H14.3358H14.3677H14.3994H14.431H14.4625H14.4938H14.525H14.556H14.5869H14.6176H14.6482H14.6786H14.7089H14.739H14.769H14.7988H14.8284H14.8579H14.8873H14.9164H14.9454H14.9743H15.003H15.0315H15.0598H15.088H15.116H15.1438H15.1715H15.199H15.2263H15.2535H15.2804H15.3072H15.3339H15.3603H15.3865H15.4126H15.4385H15.4642H15.4897H15.5151H15.5402H15.5652H15.5899H15.6145H15.6389H15.6631H15.6871H15.7109H15.7345H15.7579H15.7811H15.8041H15.8269H15.8495H15.8719H15.894H15.916H15.9378H15.9594H15.9807H16.0018H16.0228H16.0435H16.064H16.0843H16.1043H16.1242H16.1438H16.1632H16.1824H16.2014H16.2201H16.2387H16.2569H16.275H16.2928H16.3104H16.3278H16.345H16.3619H16.3785H16.395H16.4112H16.4271H16.4429H16.4583H16.4736H16.4886H16.5033H16.5178H16.5321H16.5461H16.5599H16.5734H16.5867H16.5997H16.6124H16.6249H16.6372H16.6492H16.6609H16.6724H16.6836H16.6946H16.7053H16.7157H16.7258H16.7357H16.7454H16.7547H16.7638H16.7726H16.7812H16.7895H16.7975H16.8052H16.8126H16.8198H16.8267H16.8333H16.8397H16.8457H16.8515H16.8569H16.8621H16.867H16.8717H16.876H16.88H16.8838H16.8872H16.8904H16.8933H16.8958H16.8981H16.9001H16.9017H16.9031H16.9042H16.9049H16.9054C16.9055 42.0919 16.9055 42.0919 16.9055 41.6294V42.0919C17.0016 42.0919 17.0891 42.0696 17.0931 42.0686L17.0931 42.0686L17.0932 42.0686C17.1245 42.0613 17.1577 42.0524 17.1904 42.043C17.257 42.0237 17.3393 41.9971 17.4317 41.9634C17.616 41.8964 17.8562 41.796 18.1051 41.6603L18.1371 41.6427L18.1608 41.6294H18.2457L18.3796 41.497C18.7948 41.2271 19.2734 40.8004 19.4288 40.1788C19.4784 39.9806 19.4565 39.7748 19.4374 39.6433C19.4148 39.487 19.3751 39.3097 19.3252 39.1213C19.225 38.743 19.0692 38.267 18.8734 37.7256C18.4808 36.6397 17.9104 35.2439 17.2515 33.7468C15.9685 30.8316 14.328 27.4837 12.9739 25.2454V20.1209H14.3615V19.8896H14.5928V18.9645H14.3615V18.7332H12.2801H9.62041H6.72948H4.87929V18.9645H4.4167V19.8896H4.87929V20.1209ZM13.7679 29.6031C13.0484 28.1743 12.3292 26.8462 11.6888 25.8033L11.5862 25.6362V25.4402V20.1209H9.62041H7.4233V25.4402V25.593L7.3591 25.7317L6.72948 25.4402C7.3591 25.7317 7.35908 25.7317 7.35904 25.7318L7.35885 25.7322L7.35806 25.7339L7.35494 25.7407L7.34257 25.7674L7.29424 25.8719L7.11048 26.2695C6.95203 26.6126 6.72539 27.1038 6.4527 27.6962C6.19542 28.255 5.89719 28.9038 5.57657 29.6031H13.7679ZM10.8924 37.0039C11.6588 37.0039 12.28 36.3826 12.28 35.6163C12.28 34.8499 11.6588 34.2286 10.8924 34.2286C10.126 34.2286 9.50475 34.8499 9.50475 35.6163C9.50475 36.3826 10.126 37.0039 10.8924 37.0039ZM8.57966 33.3035C8.57966 33.8144 8.16548 34.2286 7.65456 34.2286C7.14364 34.2286 6.72946 33.8144 6.72946 33.3035C6.72946 32.7926 7.14364 32.3784 7.65456 32.3784C8.16548 32.3784 8.57966 32.7926 8.57966 33.3035ZM31.222 21.7398C31.222 21.2773 24.2838 18.2707 23.59 18.502C22.8961 18.7332 22.6216 23.8213 28.2154 23.8213C30.0657 23.8213 31.222 22.2024 31.222 21.7398ZM16.9423 24.3807C17.1443 23.7748 17.7992 23.4474 18.405 23.6493L30.7216 27.7548C31.4962 26.5044 32.8807 25.6715 34.4598 25.6715C36.8867 25.6715 38.854 27.6388 38.854 30.0657C38.854 32.4925 36.8867 34.4599 34.4598 34.4599C32.0329 34.4599 30.0656 32.4925 30.0656 30.0657C30.0656 30.0351 30.0659 30.0047 30.0665 29.9743L17.6737 25.8434C17.0678 25.6414 16.7404 24.9865 16.9423 24.3807ZM20.6848 36.0622L18.6254 32.1305C18.4641 31.8225 18.6825 31.5083 19.0182 31.5989C20.379 31.9661 22.9927 32.9408 24.4351 33.5036C24.4889 33.5245 24.5447 33.5348 24.6024 33.5348H28.4972C28.6135 33.5348 28.7255 33.5786 28.8109 33.6575L30.8153 35.5077C31.1247 35.7933 30.9226 36.3101 30.5015 36.3101H21.0946C20.9225 36.3101 20.7647 36.2146 20.6848 36.0622ZM20.866 41.1239C21.2631 40.5041 21.709 39.6343 21.7553 38.6765C21.7686 38.4011 21.9809 38.1603 22.2565 38.1603H39.2164C39.2824 38.1603 39.3478 38.1738 39.4067 38.2035C40.2222 38.6146 41.471 39.7774 40.8173 41.584C40.7555 41.7545 40.5926 41.8607 40.4113 41.8607H21.2478C20.8715 41.8607 20.663 41.4406 20.866 41.1239Z" fill="#474747"/>
</svg>
