<svg width="35" height="45" viewBox="0 0 35 45" fill="none" xmlns="http://www.w3.org/2000/svg">
<path fill-rule="evenodd" clip-rule="evenodd" d="M19.4309 42.6618C26.8994 35.0287 35 26.7496 35 17.8588C35 8.19386 27.165 0.358841 17.5 0.358841C7.83502 0.358841 0 8.19386 0 17.8588C0 26.6756 9.04181 35.9539 15.6657 42.751C16.3029 43.4049 16.9177 44.0358 17.5 44.6412C18.135 43.9863 18.7806 43.3265 19.4309 42.6618ZM17.5001 20.0302C21.3802 20.0302 24.5256 16.8848 24.5256 13.0047C24.5256 9.12461 21.3802 5.97918 17.5001 5.97918C13.62 5.97918 10.4746 9.12461 10.4746 13.0047C10.4746 16.8848 13.62 20.0302 17.5001 20.0302Z" fill="white"/>
</svg>
