<svg width="100" height="100" viewBox="0 0 100 100" fill="none" xmlns="http://www.w3.org/2000/svg">
<g id="logo">
<ellipse id="Ellipse 2" cx="50" cy="50" rx="50" ry="50" fill="#474747"/>
<path id="Vector 1" d="M51.1364 100V78.4091C51.894 75.7576 55.6818 70.4545 64.7728 70.4545C76.1364 70.4545 85.2273 59.0909 84.0909 43.1818C81.0606 42.803 74.7728 41.3636 73.8637 38.6364C72.7273 35.2273 67.0455 18.1818 45.4546 19.3182C45.118 19.3182 44.7357 19.321 44.3182 19.3272M44.3182 19.3272C40.9762 19.3771 35.379 19.6464 32.9546 20.4545C29.5455 21.5909 20.4546 31.8182 17.0455 47.7273C13.6364 63.6364 42.0455 75 44.3182 47.7273V19.3272Z" stroke="white" stroke-width="4"/>
<ellipse id="Ellipse 1" cx="59.0909" cy="40.9091" rx="4.54545" ry="4.54545" fill="white"/>
</g>
</svg>
