<svg width="47" height="47" viewBox="0 0 47 47" fill="none" xmlns="http://www.w3.org/2000/svg">
<ellipse cx="23.5" cy="23.5" rx="23.5" ry="23.5" fill="#EF6D7C"/>
<path d="M24.0342 47V36.8523C24.3902 35.6061 26.1705 33.1136 30.4433 33.1136C35.7842 33.1136 40.0569 27.7727 39.5228 20.2955C38.0986 20.1174 35.1433 19.4409 34.716 18.1591C34.1819 16.5568 31.5115 8.54546 21.3637 9.07955C21.2056 9.07955 21.0259 9.08087 20.8296 9.0838M20.8296 9.0838C19.2589 9.10723 16.6282 9.23382 15.4887 9.61364C13.8865 10.1477 9.61373 14.9545 8.01146 22.4318C6.40918 29.9091 19.7615 35.25 20.8296 22.4318V9.0838Z" stroke="white" stroke-width="1.88"/>
<ellipse cx="27.7727" cy="19.2273" rx="2.13636" ry="2.13636" fill="white"/>
</svg>
