<svg width="35" height="35" viewBox="0 0 35 35" fill="none" xmlns="http://www.w3.org/2000/svg">
<path fill-rule="evenodd" clip-rule="evenodd" d="M17.5 35C27.165 35 35 27.165 35 17.5C35 7.83502 27.165 0 17.5 0C7.83502 0 0 7.83502 0 17.5C0 27.165 7.83502 35 17.5 35ZM10.8621 7.75199C10.8621 6.13689 12.1714 4.82759 13.7865 4.82759H21.5849C23.2 4.82759 24.5093 6.13689 24.5093 7.75199V27.248C24.5093 28.8631 23.2 30.1724 21.5849 30.1724H13.7865C12.1714 30.1724 10.8621 28.8631 10.8621 27.248V7.75199ZM15.6897 6.63794C15.6897 6.30467 15.9598 6.03449 16.2931 6.03449H19.9138C20.2471 6.03449 20.5173 6.30467 20.5173 6.63794C20.5173 6.97122 20.2471 7.24139 19.9138 7.24139H16.2931C15.9598 7.24139 15.6897 6.97122 15.6897 6.63794Z" fill="white"/>
</svg>
