<svg width="1657" height="719" viewBox="0 0 1657 719" fill="none" xmlns="http://www.w3.org/2000/svg">
<path d="M258.859 68.3112C361.223 60.9995 357.567 120.407 233.268 188.041C108.969 255.674 140.958 166.105 42.2494 142.342C-56.4588 118.579 42.0404 0 92.5172 0C142.994 0 156.495 75.6229 258.859 68.3112Z" fill="white"/>
<path d="M838.902 166.551C805.404 196.906 787.194 127.912 753.194 133.137C719.193 138.363 703.175 109.89 711.735 81.0792C720.295 52.2688 779.85 46.8174 808.739 55.401C837.628 63.9846 872.399 136.197 838.902 166.551Z" fill="white"/>
<path d="M1417.62 573.743C1387.7 569.916 1414.8 530.758 1397.4 515.777C1380 500.797 1387.5 480.323 1405.83 472.171C1424.15 464.018 1452.75 491.863 1460.92 510.24C1469.1 528.616 1447.55 577.571 1417.62 573.743Z" fill="white"/>
<path d="M506.157 606.991C506.157 657.468 405.83 711.183 355.353 711.183C304.876 711.183 221 689.456 221 638.98C221 588.503 313.102 595.109 363.579 595.109C414.055 595.109 506.157 556.514 506.157 606.991Z" fill="white"/>
<path d="M1044.61 627.396C1044.61 677.873 1003.69 718.793 953.212 718.793C902.735 718.793 1009.88 676.751 953.212 627.396C896.546 578.042 902.735 536 953.212 536C1003.69 536 1044.61 576.92 1044.61 627.396Z" fill="white"/>
<path d="M1510.37 252.339C1441.51 257.213 1463.69 189.979 1409.65 243.4C1355.61 296.82 1322.67 238.197 1328.93 190.62C1338.47 118.053 1398.52 161.745 1441.67 148.845C1484.83 135.944 1434.19 71.8872 1521.44 72.8498C1556.4 73.2356 1675.26 99.4536 1586.89 142.449C1498.53 185.444 1579.22 247.466 1510.37 252.339Z" fill="white"/>
<path d="M225.32 340.351C236.669 357.243 223.268 403.879 206.376 415.228C189.484 426.577 132.679 427.111 121.33 410.22C109.981 393.328 148.385 365.406 165.277 354.057C182.169 342.708 213.971 323.459 225.32 340.351Z" fill="white"/>
</svg>
