<svg width="34" height="34" viewBox="0 0 34 34" fill="none" xmlns="http://www.w3.org/2000/svg">
<path fill-rule="evenodd" clip-rule="evenodd" d="M4.73539 6.11948L2.06969 4.92676L2.92086 13.1708L9.63482 8.31165L7.24596 7.2428C10.4493 3.74919 15.363 1.99022 20.3365 3.04077C27.8259 4.62274 32.6149 11.9765 31.0329 19.466C29.4509 26.9554 22.0971 31.7443 14.6077 30.1623C9.50093 29.0836 5.64974 25.3214 4.2177 20.6624C4.06183 20.1553 3.65793 19.7547 3.13884 19.645C2.19451 19.4456 1.34918 20.2578 1.61803 21.1847C3.26016 26.8468 7.8911 31.4418 14.0621 32.7453C22.9781 34.6286 31.7326 28.9275 33.6159 20.0116C35.4992 11.0956 29.7981 2.34106 20.8821 0.45776C14.7111 -0.845728 8.61746 1.48404 4.82582 5.99829C4.79267 6.03776 4.76255 6.07823 4.73539 6.11948Z" fill="white"/>
<path d="M15.6351 22.91H7.0895C7.0895 22.1557 7.18579 21.463 7.37837 20.8318C7.57095 20.2006 7.82237 19.6817 8.13263 19.2751C8.44824 18.8632 8.7906 18.4888 9.15971 18.1517C9.53416 17.8094 9.90594 17.5178 10.275 17.2771C10.6495 17.0311 10.9919 16.801 11.3021 16.5871C11.6177 16.3677 11.8718 16.135 12.0644 15.889C12.257 15.6375 12.3533 15.3754 12.3533 15.1026C12.3533 14.3911 11.9414 14.0354 11.1176 14.0354C10.802 14.0354 10.5211 14.1263 10.275 14.3082C10.029 14.4901 9.86047 14.6666 9.76953 14.8378L9.64115 15.1026L7.00926 13.8749C7.04136 13.8 7.08683 13.6984 7.14567 13.57C7.20986 13.4416 7.36232 13.2196 7.60304 12.904C7.84376 12.5831 8.11658 12.2995 8.42149 12.0535C8.73176 11.8074 9.15703 11.5827 9.69732 11.3795C10.2376 11.1762 10.8207 11.0745 11.4466 11.0745C12.6609 11.0745 13.6612 11.4436 14.4476 12.1819C15.2393 12.9147 15.6351 13.8054 15.6351 14.8539C15.6351 15.4102 15.5254 15.913 15.3061 16.3624C15.0868 16.8064 14.8006 17.1835 14.4476 17.4938C14.0998 17.7987 13.7414 18.0742 13.3723 18.3203C13.0086 18.5663 12.6314 18.8311 12.2409 19.1146C11.8558 19.3981 11.5642 19.6763 11.3663 19.9491H15.6351V22.91ZM25.2559 18.3925H26.4916V21.0163H25.2559V22.91H22.1346V21.0163H16.9591V18.1437L21.8056 11.4035H25.2559V18.3925ZM22.1346 18.3925V15.0224L19.7514 18.3925H22.1346Z" fill="white"/>
</svg>
