<svg width="43" height="41" viewBox="0 0 43 41" fill="none" xmlns="http://www.w3.org/2000/svg">
<g clip-path="url(#clip0_308_378)">
<path d="M18.4367 25.4179V26.2293L29.1468 30.0084C30.0725 30.0668 30.9424 30.4461 31.5807 31.0736C32.2243 31.7062 32.5838 32.544 32.582 33.4163M18.4367 25.4179L32.432 33.416M18.4367 25.4179H42.1569C42.4273 25.4179 42.6889 25.3191 42.8837 25.1397L42.8837 25.1396C43.0788 24.9598 43.191 24.7132 43.191 24.4532C43.191 23.5126 43.2018 22.7234 43.2108 22.0608C43.2135 21.8632 43.2161 21.677 43.2182 21.5013C43.2271 20.7391 43.2271 20.1709 43.1892 19.7545C43.152 19.3443 43.076 19.0449 42.9024 18.8527C42.7511 18.6851 42.5473 18.6211 42.3069 18.6044V17.9347C42.3069 17.2425 42.0084 16.5814 41.4817 16.096C40.9554 15.6109 40.2441 15.3403 39.5046 15.3403H4.14141C3.40198 15.3403 2.69062 15.6109 2.16434 16.096C1.63763 16.5814 1.33917 17.2425 1.33917 17.9347V18.6097C1.12344 18.6392 0.920763 18.7319 0.762382 18.8779L0.863715 18.9878L0.762381 18.8779C0.567266 19.0577 0.455089 19.3044 0.455089 19.5643C0.455089 20.5051 0.44428 21.2943 0.435205 21.957C0.432501 22.1544 0.429951 22.3406 0.427887 22.5163C0.418928 23.2784 0.418966 23.8466 0.45681 24.263C0.494083 24.6732 0.570052 24.9726 0.74367 25.1648C0.92557 25.3662 1.18324 25.4179 1.48917 25.4179H11.0641L11.0641 26.8973L11.0641 26.8976L18.4367 25.4179ZM32.582 33.4163L32.432 33.416M32.582 33.4163V33.416H32.432M32.582 33.4163V34.8978M32.432 33.416V34.8957C32.4824 34.8957 32.5324 34.8964 32.582 34.8978M32.582 34.8978C34.6211 34.9557 36.0034 36.1886 36.6313 37.422C36.9515 38.051 37.0838 38.6963 36.9918 39.1977C36.9454 39.4502 36.8405 39.6738 36.6652 39.8348C36.4882 39.9975 36.2523 40.0845 35.9683 40.0845H7.67773C7.39373 40.0845 7.15793 39.9975 6.98113 39.8348C6.80605 39.6736 6.70144 39.4499 6.65547 39.1974C6.5642 38.6961 6.69734 38.0509 7.01808 37.4219C7.66229 36.1587 9.09698 34.8957 11.2141 34.8957H25.2094M32.582 34.8978V35.0457H32.432C36.543 35.0457 37.984 39.9345 35.9683 39.9345H7.67773C5.66203 39.9345 7.11192 35.0457 11.2141 35.0457H25.2094M25.2094 34.8957H25.3594V35.0457H25.2094M25.2094 34.8957V35.0457M25.2094 34.8957V35.0457M25.2094 34.0844L25.3095 34.1197L25.3594 33.9782H25.2094V34.0844ZM33.8822 37.2492L33.8822 37.2492C34.2393 37.4818 34.5214 37.7947 34.7036 38.1549H8.94248C9.12458 37.7947 9.40672 37.4818 9.76382 37.2492L9.68195 37.1235L9.76383 37.2492C10.1869 36.9736 10.6935 36.825 11.214 36.8252H11.2141H32.432H32.4321C32.9525 36.825 33.4592 36.9736 33.8822 37.2492ZM13.6018 27.9396L13.6018 27.9396C13.2994 27.661 13.1322 27.2859 13.1322 26.8976V25.4179H16.3686V26.8976C16.3686 27.2859 16.2013 27.661 15.899 27.9396C15.5963 28.2186 15.1833 28.3772 14.7504 28.3772C14.3175 28.3772 13.9045 28.2186 13.6018 27.9396ZM40.2387 17.9347V18.5995H19.3208V17.2699H39.5046C39.7031 17.2699 39.8912 17.3427 40.0281 17.4688C40.1647 17.5947 40.2387 17.7625 40.2387 17.9347ZM3.40733 17.9347C3.40733 17.7626 3.48142 17.5947 3.61792 17.4688L3.61795 17.4688C3.75484 17.3427 3.94294 17.2699 4.14141 17.2699H17.2526V18.5995H3.40733V17.9347ZM18.1505 28.1944L26.2469 31.0296C25.93 31.3365 25.6757 31.695 25.4975 32.0879L17.3979 29.2827C17.7194 28.9671 17.9749 28.5982 18.1505 28.1944ZM30.5138 33.416V34.8957H27.2775V33.416C27.2775 33.0278 27.4448 32.6526 27.7471 32.374C28.0497 32.0951 28.4628 31.9365 28.8957 31.9365C29.3286 31.9365 29.7416 32.0951 30.0443 32.374C30.3466 32.6527 30.5138 33.0278 30.5138 33.416ZM41.1228 23.4884H2.52325V20.5292H41.1228V23.4884Z" fill="#474747" stroke="#474747" stroke-width="0.3"/>
<path d="M18.1369 2.30385H17.4028C15.2857 2.30385 13.851 3.56688 13.2068 4.83012C12.8861 5.45908 12.7529 6.10431 12.8442 6.60567C12.8902 6.85817 12.9948 7.08187 13.1699 7.24299C13.3467 7.40571 13.5825 7.49269 13.8665 7.49269H29.7799C30.0639 7.49269 30.2998 7.40571 30.4768 7.24307C30.6521 7.08201 30.7571 6.85838 30.8034 6.60588C30.8954 6.10452 30.7632 5.45924 30.443 4.83022C29.7998 3.56679 28.365 2.30385 26.2436 2.30385H25.5095V1.63904C25.5095 1.379 25.3973 1.13239 25.2023 0.952599L25.2023 0.952573C25.0075 0.773157 24.746 0.674234 24.4755 0.674234C24.205 0.674234 23.9433 0.773137 23.7487 0.952575C23.5535 1.1324 23.4414 1.37903 23.4414 1.63904V2.30385H20.2051V1.63904C20.2051 1.379 20.0928 1.13239 19.8978 0.952599L19.8978 0.952573C19.7031 0.773157 19.4415 0.674234 19.171 0.674234C18.9005 0.674234 18.6388 0.773145 18.4442 0.952596C18.249 1.13242 18.1369 1.37904 18.1369 1.63904V2.30385ZM17.4028 4.23345H17.4028H26.2436H26.2437C26.7641 4.23321 27.2708 4.38179 27.6938 4.65734L27.6938 4.65734C28.051 4.88995 28.3331 5.2029 28.5152 5.56307H15.1312C15.3133 5.2029 15.5954 4.88995 15.9526 4.65734L15.9526 4.65734C16.3757 4.38178 16.8823 4.23321 17.4028 4.23345Z" fill="#474747" stroke="#474747" stroke-width="0.3"/>
<path d="M21.0961 11.2881C21.2908 11.4676 21.5524 11.5665 21.8229 11.5665C22.0933 11.5665 22.355 11.4676 22.5496 11.2881C22.7448 11.1083 22.8569 10.8617 22.8569 10.6016V8.97208C22.8569 8.71211 22.7448 8.46542 22.5496 8.28561C22.355 8.1062 22.0933 8.00726 21.8229 8.00726C21.5524 8.00726 21.2908 8.10622 21.0961 8.28561L21.0961 8.28563C20.901 8.46541 20.7888 8.71208 20.7888 8.97208V10.6016C20.7888 10.8617 20.901 11.1083 21.0961 11.2881ZM21.0961 11.2881L21.1977 11.1778M21.0961 11.2881C21.0961 11.2881 21.0961 11.2881 21.0961 11.2881L21.1977 11.1778M21.1977 11.1778C21.3635 11.3307 21.5884 11.4165 21.8229 11.4165C22.0573 11.4165 22.2823 11.3307 22.448 11.1778H21.1977Z" fill="#474747" stroke="#474747" stroke-width="0.3"/>
<path d="M17.5575 8.28349L17.5575 8.28351L15.7894 9.91314C15.7894 9.91315 15.7893 9.91316 15.7893 9.91316C15.6925 10.0024 15.615 10.1091 15.5618 10.2274C15.5085 10.3458 15.481 10.4731 15.481 10.602C15.481 10.8628 15.5936 11.1103 15.7893 11.2908L15.7894 11.2908C15.9848 11.4708 16.2473 11.5701 16.5187 11.5701C16.6534 11.5701 16.7869 11.5456 16.9119 11.498C17.037 11.4502 17.1512 11.38 17.248 11.2908L17.2481 11.2908L19.0163 9.66113L18.9191 9.55576L19.0163 9.66113C19.212 9.4807 19.3246 9.23325 19.3246 8.97232C19.3246 8.71149 19.212 8.46395 19.0163 8.28352L19.0162 8.28349C18.8208 8.10348 18.5583 8.00421 18.2869 8.00421C18.0155 8.00421 17.7529 8.10348 17.5575 8.28349Z" fill="#474747" stroke="#474747" stroke-width="0.3"/>
<path d="M25.7524 8.07634C25.6275 8.02865 25.4939 8.00421 25.3592 8.00421C25.0878 8.00421 24.8253 8.10348 24.6299 8.28349L24.6298 8.28355C24.533 8.37285 24.4555 8.47948 24.4023 8.59768L24.4023 8.59772C24.3491 8.71614 24.3216 8.84343 24.3216 8.97232C24.3216 9.23325 24.4341 9.4807 24.6299 9.66113L24.6299 9.66113L26.398 11.2908L26.398 11.2908C26.5934 11.4708 26.856 11.5701 27.1274 11.5701C27.3988 11.5701 27.6613 11.4708 27.8567 11.2908L27.8568 11.2908C28.0525 11.1103 28.1651 10.8628 28.1651 10.602C28.1651 10.341 28.0525 10.0936 27.8568 9.91316L27.7551 10.0235M25.7524 8.07634L25.6989 8.21647L25.7524 8.07633C25.7524 8.07634 25.7524 8.07634 25.7524 8.07634ZM25.7524 8.07634C25.8775 8.12407 25.9917 8.19435 26.0885 8.28345L26.0886 8.28351L27.8568 9.91316L27.7551 10.0235M27.7551 10.0235L25.987 8.39381C25.9045 8.31789 25.8067 8.25758 25.6989 8.21648C25.5913 8.17538 25.4758 8.15421 25.3592 8.15421C25.1238 8.15421 24.898 8.2404 24.7315 8.39381C24.6491 8.46981 24.5837 8.56001 24.5391 8.65922C24.4945 8.75852 24.4716 8.86487 24.4716 8.97232C24.4716 9.18934 24.5651 9.39742 24.7315 9.55083L26.4997 11.1805C26.6662 11.3339 26.892 11.4201 27.1274 11.4201C27.3628 11.4201 27.5886 11.3339 27.7551 11.1805C27.9216 11.0271 28.0151 10.8189 28.0151 10.602C28.0151 10.385 27.9216 10.1769 27.7551 10.0235Z" fill="#474747" stroke="#474747" stroke-width="0.3"/>
</g>
<defs>
<clipPath id="clip0_308_378">
<rect width="43" height="40" fill="white" transform="translate(0 0.0920105)"/>
</clipPath>
</defs>
</svg>
