<svg width="35" height="35" viewBox="0 0 35 35" fill="none" xmlns="http://www.w3.org/2000/svg">
<path fill-rule="evenodd" clip-rule="evenodd" d="M35 17.5C35 27.165 27.165 35 17.5 35C7.83502 35 0 27.165 0 17.5C0 7.83502 7.83502 0 17.5 0C27.165 0 35 7.83502 35 17.5ZM14.3167 19.2624L7.65169 26.0861C15.8599 27.5424 24.3108 26.6929 27.5102 26.0861L20.485 19.2205C20.3469 19.0856 20.1237 19.0981 19.9885 19.236C19.4007 19.8351 18.8165 20.08 18.5739 20.1285C18.1326 20.1837 17.0514 20.2609 16.257 20.1285C15.6708 20.0308 15.1687 19.6267 14.8572 19.2886C14.7146 19.1338 14.4637 19.1119 14.3167 19.2624ZM12.7188 17.5494C12.8454 17.4197 12.8442 17.2122 12.716 17.0841L6.56186 10.9299C6.35336 10.7214 5.99685 10.8691 5.99685 11.1639L5.99685 23.6188C5.99685 23.9155 6.35724 24.0623 6.56459 23.85L12.7188 17.5494ZM22.2909 16.9186C22.1627 17.0468 22.1615 17.2542 22.2882 17.3839L28.4424 23.6846C28.6497 23.8968 29.0101 23.75 29.0101 23.4533L29.0101 10.9985C29.0101 10.7036 28.6536 10.5559 28.4451 10.7644L22.2909 16.9186ZM17.1857 17.7518C17.3136 17.8774 17.5182 17.8783 17.6473 17.7539L26.5887 9.13508C26.8031 8.9284 26.6568 8.56581 26.359 8.56581L8.6373 8.56575C8.34095 8.56575 8.19396 8.92532 8.40545 9.13292L17.1857 17.7518Z" fill="white"/>
</svg>
