<svg width="35" height="36" viewBox="0 0 35 36" fill="none" xmlns="http://www.w3.org/2000/svg">
<path d="M7.87506 28.908C8.5476 28.1548 11.6974 24.6886 12.6205 24.6886H22.3802C23.7178 24.6886 26.4484 27.5618 27.1251 28.5746M31.5001 18.408C31.5001 26.14 25.232 32.408 17.5001 32.408C9.76807 32.408 3.50006 26.14 3.50006 18.408C3.50006 10.676 9.76807 4.40799 17.5001 4.40799C25.232 4.40799 31.5001 10.676 31.5001 18.408ZM22.515 13.6363C22.515 10.9653 20.2603 8.78299 17.5005 8.78299C14.7408 8.78299 12.4859 10.9653 12.4859 13.6363C12.4859 16.3072 14.7408 18.4895 17.5005 18.4895C20.2602 18.4895 22.515 16.3072 22.515 13.6363Z" stroke="#474747" stroke-width="2.91667"/>
</svg>
