<svg width="47" height="47" viewBox="0 0 47 47" fill="none" xmlns="http://www.w3.org/2000/svg">
<path d="M10.5747 37.6C11.4778 36.5885 15.7076 31.9339 16.9471 31.9339H30.0531C31.8493 31.9339 35.516 35.7923 36.4247 37.1523M42.2997 23.5C42.2997 33.883 33.8827 42.3 23.4997 42.3C13.1168 42.3 4.69971 33.883 4.69971 23.5C4.69971 13.117 13.1168 4.7 23.4997 4.7C33.8827 4.7 42.2997 13.117 42.2997 23.5ZM30.2341 17.0923C30.2341 13.5055 27.2062 10.575 23.5003 10.575C19.7944 10.575 16.7664 13.5055 16.7664 17.0923C16.7664 20.679 19.7944 23.6095 23.5003 23.6095C27.2062 23.6095 30.2341 20.679 30.2341 17.0923Z" stroke="#333333" stroke-width="3.91667"/>
</svg>
