<svg width="35" height="35" viewBox="0 0 35 35" fill="none" xmlns="http://www.w3.org/2000/svg">
<path d="M7.87506 28C8.5476 27.2468 11.6974 23.7806 12.6205 23.7806H22.3802C23.7178 23.7806 26.4484 26.6538 27.1251 27.6666M31.5001 17.5C31.5001 25.232 25.232 31.5 17.5001 31.5C9.76807 31.5 3.50006 25.232 3.50006 17.5C3.50006 9.76801 9.76807 3.5 17.5001 3.5C25.232 3.5 31.5001 9.76801 31.5001 17.5ZM22.515 12.7283C22.515 10.0573 20.2603 7.875 17.5005 7.875C14.7408 7.875 12.4859 10.0573 12.4859 12.7283C12.4859 15.3992 14.7408 17.5815 17.5005 17.5815C20.2602 17.5815 22.515 15.3992 22.515 12.7283Z" stroke="#EF6D7C" stroke-width="2.91667"/>
</svg>
