<svg width="35" height="35" viewBox="0 0 35 35" fill="none" xmlns="http://www.w3.org/2000/svg">
<path d="M17.5 0C27.1653 0 35 7.83467 35 17.5C35 27.1653 27.1653 35 17.5 35C7.83467 35 0 27.1653 0 17.5C0 7.83467 7.83467 0 17.5 0ZM23.5367 24.6332C23.8586 23.6455 25.3666 13.8029 25.553 11.8635C25.6093 11.2761 25.4237 10.8858 25.06 10.7115C24.6202 10.5 23.9689 10.6058 23.2134 10.8782C22.1771 11.2517 8.9288 16.8768 8.16337 17.2025C7.4375 17.5107 6.7512 17.847 6.7512 18.3339C6.7512 18.6763 6.95435 18.8688 7.51435 19.0689C8.09717 19.2766 9.56489 19.7217 10.4315 19.9607C11.2662 20.1912 12.2165 19.9911 12.7491 19.6601C13.3137 19.3093 19.829 14.9496 20.297 14.5676C20.7641 14.1857 21.137 14.6749 20.755 15.0576C20.373 15.4396 15.9007 19.7803 15.311 20.3814C14.595 21.1111 15.1033 21.8674 15.5834 22.1702C16.132 22.5157 20.0771 25.162 20.6713 25.5865C21.2655 26.0111 21.8682 26.2036 22.4198 26.2036C22.9714 26.2036 23.2621 25.477 23.5367 24.6332Z" fill="white"/>
</svg>
