<svg width="35" height="35" viewBox="0 0 35 35" fill="none" xmlns="http://www.w3.org/2000/svg">
<path d="M17.5 0C7.85065 0 0 7.85065 0 17.5C0 27.1493 7.85065 35 17.5 35C27.1501 35 35 27.1493 35 17.5C35 7.85065 27.1501 0 17.5 0ZM25.0882 20.9505C26.7902 22.4616 27.144 23.0011 27.2018 23.0932C27.9072 24.2116 26.4197 24.3478 26.4197 24.3478H23.2849C23.2849 24.3478 22.5217 24.3562 21.8697 23.924C20.8067 23.2278 19.6936 21.878 18.9114 22.1124C18.2548 22.3087 18.2609 23.1959 18.2609 23.9545C18.2609 24.2261 18.0273 24.3478 17.5 24.3478C16.9727 24.3478 16.7536 24.3478 16.52 24.3478C14.8027 24.3478 12.9393 23.7696 11.0805 21.8271C8.45098 19.0811 6.14478 13.5496 6.14478 13.5496C6.14478 13.5496 6.00859 13.2711 6.15696 13.1014C6.32511 12.9112 6.78239 12.9355 6.78239 12.9355L9.82207 12.9348C9.82207 12.9348 10.1082 12.9888 10.3136 13.1334C10.4833 13.2521 10.5776 13.4788 10.5776 13.4788C10.5776 13.4788 11.0882 15.1649 11.7387 16.24C13.0093 18.3385 13.6005 18.3917 14.032 18.1658C14.662 17.8386 14.4565 15.6077 14.4565 15.6077C14.4565 15.6077 14.4847 14.6498 14.156 14.2229C13.9026 13.8927 13.4179 13.717 13.2064 13.6896C13.0352 13.6675 13.3213 13.3677 13.6858 13.1965C14.1727 12.9797 14.8354 12.9241 15.9783 12.9348C16.8677 12.9432 17.1241 12.9964 17.4711 13.0763C18.5203 13.3183 18.2609 13.9566 18.2609 16.1982C18.2609 16.9164 18.162 17.9261 18.7037 18.2609C18.9373 18.4054 19.7377 18.582 21.1621 16.2689C21.8385 15.1717 22.3764 13.3517 22.3764 13.3517C22.3764 13.3517 22.4875 13.1516 22.6602 13.0527C22.8367 12.9515 22.8314 12.9538 23.0734 12.9538C23.3153 12.9538 25.7417 12.9348 26.2743 12.9348C26.8062 12.9348 27.3053 12.9287 27.3913 13.2407C27.5146 13.6888 26.9987 15.2242 25.6915 16.8905C23.5436 19.6251 23.3054 19.3695 25.0882 20.9505Z" fill="white"/>
</svg>
