<svg width="34" height="29" viewBox="0 0 34 29" fill="none" xmlns="http://www.w3.org/2000/svg">
<path fill-rule="evenodd" clip-rule="evenodd" d="M9.77241 0.0226216C12.1536 0.195164 14.6348 1.35592 17.0099 3.70515C19.3845 1.35658 21.8635 0.19803 24.2424 0.0293243C26.9274 -0.161092 29.3009 0.924069 31.0184 2.63616C34.3947 6.00236 35.4549 12.0935 31.2653 16.2832C31.2512 16.2973 31.2367 16.3111 31.2219 16.3245L17.8251 28.4595C17.3624 28.8784 16.6574 28.8784 16.1948 28.4595L2.79792 16.3245C2.78311 16.3111 2.76864 16.2973 2.7545 16.2832C-1.45702 12.0717 -0.402405 5.97983 2.98506 2.61625C4.70658 0.906852 7.085 -0.172093 9.77241 0.0226216Z" fill="white"/>
</svg>
