<svg width="35" height="36" viewBox="0 0 35 36" fill="none" xmlns="http://www.w3.org/2000/svg">
<path d="M7.87506 28.6411C8.5476 27.8879 11.6974 24.4217 12.6205 24.4217H22.3802C23.7178 24.4217 26.4484 27.295 27.1251 28.3078M31.5001 18.1411C31.5001 25.8731 25.232 32.1411 17.5001 32.1411C9.76807 32.1411 3.50006 25.8731 3.50006 18.1411C3.50006 10.4092 9.76807 4.14114 17.5001 4.14114C25.232 4.14114 31.5001 10.4092 31.5001 18.1411ZM22.515 13.3694C22.515 10.6985 20.2603 8.51614 17.5005 8.51614C14.7408 8.51614 12.4859 10.6985 12.4859 13.3694C12.4859 16.0404 14.7408 18.2227 17.5005 18.2227C20.2602 18.2227 22.515 16.0404 22.515 13.3694Z" stroke="white" stroke-width="2.91667"/>
</svg>
